<mxfile host="Electron" modified="2024-05-21T12:08:28.862Z" agent="Mozilla/5.0 (X11; Linux x86_64) AppleWebKit/537.36 (KHTML, like Gecko) draw.io/24.2.5 Chrome/120.0.6099.109 Electron/28.1.0 Safari/537.36" etag="GAQxlu-4w4nb1Jm3VEMn" version="24.2.5" type="device">
  <diagram name="Page-1" id="mcjWe2cQ_oCkN2n5i1wG">
    <mxGraphModel dx="1434" dy="839" grid="1" gridSize="10" guides="1" tooltips="1" connect="1" arrows="1" fold="1" page="1" pageScale="1" pageWidth="827" pageHeight="1169" math="0" shadow="0">
      <root>
        <mxCell id="0" />
        <mxCell id="1" parent="0" />
        <mxCell id="j0XCvzLV908bLDE6tFvo-1" value="" style="shape=image;aspect=fixed;image=data:image/png,iVBORw0KGgoAAAANSUhEUgAAB4AAAAQ4CAIAAABnsVYUAAAAA3NCSVQICAjb4U/gAAAAGXRFWHRTb2Z0d2FyZQBnbm9tZS1zY3JlZW5zaG907wO/PgAAIABJREFUeJzs2sFtG0kURVF5qrcOxPmnYjibD8zGCy00wBDS1VeL5wRQeGi2Rfqifvz8+fMFAAAAAAA+2j/bAwAAAAAA+J4EaAAAAAAAEgI0AAAAAAAJARoAAAAAgIQADQAAAABAQoAGAAAAACAhQAMAAAAAkBCgAQAAAABICNAAAAAAACQEaAAAAAAAEgI0AAAAAAAJARoAAAAAgIQADQAAAABAQoAGAAAAACAhQAMAAAAAkBCgAQAAAABICNAAAAAAACQEaAAAAAAAEgI0AAAAAAAJARoAAAAAgIQADQAAAABAQoAGAAAAACAhQAMAAAAAkBCgAQAAAABICNAAAAAAACQEaAAAAAAAEgI0AAAAAAAJARoAAAAAgIQADQAAAABAQoAGAAAAACAhQAMAAAAAkBCgAQAAAABICNAAAAAAACQEaAAAAAAAEgI0AAAAAAAJARoAAAAAgIQADQAAAABAQoAGAAAAACAhQAMAAAAAkBCgAQAAAABICNAAAAAAACQEaAAAAAAAEgI0AAAAAAAJARoAAAAAgIQADQAAAABAQoAGAAAAACAhQAMAAAAAkBCgAQAAAABICNAAAAAAACQEaAAAAAAAEgI0AAAAAAAJARoAAAAAgIQADQAAAABAQoAGAAAAACAhQAMAAAAAkBCgAQAAAABICNAAAAAAACQEaAAAAAAAEgI0AAAAAAAAAAAAAAAAAAAAAAAAAAAAAAAAAAAAAAAAAAAAAAAAAAAAAAAAAAAAAAAAAAAAAAAAAAAAAAAAAAAAAAAAAAAAAAAAAAAAAAAAAAAAAAAAAAAAAMDH+LE9AAAAgBuYme0JALDmnLM94a7+2R4AAAAAAMD3JEADAAAAAJAQoAEAAAAASAjQAAAAAAAkBGgAAAAAABICNAAAAAAACQEaAAAAAICEAA0AAAAAQEKABgAAAAAgIUADAAAAAJAQoAEAAAAASAjQAAAAAAAkBGgAAAAAABICNAAAAAAACQEaAAAAAICEAA0AAAAAQEKABgAAAAAgIUADAAAAAJAQoAEAAAAASAjQAAAAAAAkBGgAAAAAABICNAAAAAAACQEaAAAAAICEAA0AAAAAQEKABgAAAAAgIUADAAAAAJAQoAEAAAAASAjQAAAAAAAkBGgAAAAAABICNAAAAAAACQEaAAAAAICEAA0AAAAAQEKABgAAAAAgIUADAAAAAJAQoAEAAAAASAjQAAAAAAAkBGgAAAAAABICNAAAAAAACQEaAAAAAICEAA0AAAAAQEKABgAAAAAgIUADAAAAAJAQoAEAAAAASAjQAAAAAAAkru0BAAAA8H+dc7YnAPCpZmZ7Au/iBjQAAAAAAAkBGgAAAACAhAANAAAAAEBCgAYAAAAAICFAAwAAAACQEKABAAAAAEgI0AAAAAAAJARoAAAAAAASAjQAAAAAAAkBGgAAAACAhAANAAAAAEBCgAYAAAAAICFAAwAAAACQEKABAAAAAEhc2wMAAACezsxsTwAAHnDH7+5zzvaElxc3oAEAAAAAiAjQAAAAAAAkBGgAAAAAABICNAAAAAAACQEaAAAAAICEAA0AAAAAQEKABgAAAAAgIUADAAAAAJAQoAEAAAAASAjQAAAAAAAkBGgAAAAAABICNAAAAAAACQEaAAAAAICEAA0AAAAAQEKABgAAAAAgIUADAAAAAJAQoAEAAAAASAjQAAAAAAAkBGgAAAAAABICNAAAAAAACQEaAAAAAICEAA0AAAAAQEKABgAAAAAgIUADAAAAAJAQoAEAAAAASAjQAAAAAAAkBGgAAAAAABICNAAAAAAACQEaAAAAAICEAA0AAAAAQEKABgAAAAAgIUADAAAAAJAQoAEAAAAASAjQAAAAAAAkBGgAAAAAABICNAAAAAAACQEaAAAAAICEAA0AAAAAQEKABgAAAAAgIUADAAAAAJAQoAEAAAAASAjQAAAAAAAkBGgAAAAAABICNAAAAAAAiWt7AABvm5ntCU/hnLM94Sl4nz+H9xl4lL8bAHx9d/y28j+g19yABgAAAAAgIUADAAAAAJAQoAEAAAAASAjQAAAAAAAkBGgAAAAAABICNAAAAAAACQEaAAAAAICEAA0AAAAAQEKABgAAAAAgIUADAAAAAJAQoAEAAAAASAjQAAAAAAAkBGgAAAAAABICNAAAAAAACQEaAAAAAICEAA0AAAAAQEKABgAAAAAgIUADAAAAAJAQoAEAAAAASAjQAAAAAAAkBGgAAAAAABICNAAAAAAACQEaAAAAAICEAA0AAAAAQEKABgAAAAAgIUADAAAAAJAQoAEAAAAASAjQAAAAAAAkBGgAAAAAABICNAAAAAAACQEaAAAAAICEAA0AAAAAQEKABgAAAAAgIUADAAAAAJAQoAEAAAAASAjQAAAAAAAkBGgAAAAAABICNAAAAAAACQEaAAAAAICEAA0AAAAAQEKABgAAAAAgIUADAAAAAJAQoAEAAAAASAjQAAAAAAAkBGgAAAAAABICNAAAAAAACQEaAAAAAICEAA0AAAAAQEKABgAAAAAgIUADAAAAAJAQoAEAAAAASAjQAAAAAAAkBGgAAAAAABICNAAAAAAACQEaAAAAAICEAA0AAAAAQEKABgAAAAAgIUADAAAAAJAQoAEAAAAASFzbAwD4Ps452xMeNjPbE56CdwMAAOA5uQENAAAAAEBCgAYAAAAAICFAAwAAAACQEKABAAAAAEgI0AAAAAAAJARoAAAAAAASAjQAAAAAAAkBGgAAAACAhAANAAAAAEBCgAYAAAAAICFAAwAAAACQEKABAAAAAEgI0AAAAAAAJARoAAAAAAASAjQAAAAAAAkBGgAAAACAhAANAAAAAEBCgAYAAAAAICFAAwAAAACQEKABAAAAAEgI0AAAAAAAJARoAAAAAAASAjQAAAAAAAkBGgAAAACAhAANAAAAAEBCgAYAAAAAICFAAwAAAACQEKABAAAAAEgI0AAAAAAAJK7tAQAAAMCNzcz2hIedc7YnPAXvBvDiBjQAAAAAABEBGgAAAACAhAANAAAAAEBCgAYAAAAAICFAAwAAAACQEKABAAAAAEgI0AAAAAAAJARoAAAAAAASAjQAAAAAAAkBGgAAAACAhAANAAAAAEBCgAYAAAAAICFAAwAAAACQEKABAAAAAEgI0AAAAAAAJARoAAAAAAASAjQAAAAAAAkBGgAAAACAhAANAAAAAEBCgAYAAAAAICFAAwAAAACQEKABAAAAAEgI0AAAAAAAJARoAAAAAAASAjQAAAAAAAkBGgAAAACAhAANAAAAAEBCgAYAAAAAICFAAwAAAACQuLYHAHyGmdme8LBzzvaEp+A5fw7/BgFg3R2/jjvd07jjTwjvxmveDfhwbkADAAAAAJAQoAEAAAAASAjQAAAAAAAkBGgAAAAAABICNAAAAAAACQEaAAAAAICEAA0AAAAAQEKABgAAAAAgIUADAAAAAJAQoAEAAAAASAjQAAAAAAAkBGgAAAAAABICNAAAAAAACQEaAAAAAICEAA0AAAAAQEKABgAAAAAgIUADAAAAAJAQoAEAAAAASAjQAAAAAAAkBGgAAAAAABICNAAAAAAACQEaAAAAAICEAA0AAAAAQEKABgAAAAAgIUADAAAAAJAQoAEAAAAASAjQAAAAAAAkBGgAAAAAABICNAAAAAAAiWt7AAAAAPDXzGxP4F18gvyX7t0450Qnw4dwAxoAAAAAgIQADQAAAABAQoAGAAAAACAhQAMAAAAAkBCgAQAAAABICNAAAAAAACQEaAAAAAAAEgI0AAAAAAAJARoAAAAAgIQADQAAAABAQoAGAAAAACAhQAMAAAAAkBCgAQAAAABICNAAAAAAACQEaAAAAAAAEgI0AAAAAAAJARoAAAAAgIQADQAAAABAQoAGAAAAACAhQAMAAAAAkBCgAQAAAABICNAAAAAAACQEaAAAAAAAEgI0AAAAAAAJARoAAAAAgIQADQAAAABAQoAGAAAAACAhQAMAAAAAkBCgAQAAAABIXNsDAGDTzGxPeNg5Z3vCw+642bsBAADwfm5AAwAAAACQEKABAAAAAEgI0AAAAAAAJARoAAAAAAASAjQAAAAAAAkBGgAAAACAhAANAAAAAEBCgAYAAAAAICFAAwAAAACQEKABAAAAAEgI0AAAAAAAJARoAAAAAAASAjQAAAAAAAkBGgAAAACAhAANAAAAAEBCgAYAAAAAICFAAwAAAACQEKABAAAAAEgI0AAAAAAAJARoAAAAAAASAjQAAAAAAAkBGgAAAACAhAANAAAAAEBCgAYAAAAAICFAAwAAAACQEKABAAAAAEgI0AAAAAAAJARoAAAAAAASAjQAAAAAAIlrewAAAADAG8452xMeNjPbEx7mOQMpN6ABAAAAAEgI0AAAAAAAJARoAAAAAAASAjQAAAAAAAkBGgAAAACAhAANAAAAAEBCgAYAAAAAICFAAwAAAACQEKABAAAAAEgI0AAAAAAAJARoAAAAAAASAjQAAAAAAAkBGgAAAACAhAANAAAAAEBCgAYAAAAAICFAAwAAAACQEKABAAAAAEgI0AAAAAAAJARoAAAAAAASAjQAAAAAAAkBGgAAAACAhAANAAAAAEBCgAYAAAAAICFAAwAAAACQEKABAAAAAEgI0AAAAAAAJARoAAAAAAASAjQAAAAAAAkBGgAAAACAxLU9AAA2nXO2JwAA3JsfVK95Gp+je84zE50MT8sNaAAAAAAAEgI0AAAAAAAJARoAAAAAgIQADQAAAABAQoAGAAAAACAhQAMAAAAAkBCgAQAAAABICNAAAAAAACQEaAAAAAAAEgI0AAAAAAAJARoAAAAAgIQADQAAAABAQoAGAAAAACAhQAMAAAAAkLi2BwAAALzLzGxPAADgbW5AAwAAAACQEKABAAAAAEgI0AAAAAAAJARoAAAAAAASAjQAAAAAAAkBGgAAAACAhAANAAAAAEBCgAYAAAAAICFAAwAAAACQEKABAAAAAEgI0AAAAAAAJARoAAAAAAASAjQAAAAAAAkBGgAAAACAhAANAAAAAEBCgAYAAAAAICFAAwAAAACQEKABAAAAAEgI0AAAAAAAJARoAAAAAAASAjQAAAAAAAkBGgAAAACAhAANAAAAAEBCgAYAAAAAICFAAwAAAACQEKABAAAAAEgI0AAAAAAAJARoAAAAAAASAjQAAAAAAAkBGgAAAACAhAANAAAAAEBCgAYAAAAAICFAAwAAAACQEKABAAAAAEgI0AAAAAAAJARoAAAAAAASAjQAAAAAAAkBGgAAAACAhAANAAAAAEBCgAYAAAAAICFAAwAAAACQEKABAAAAAEgI0AAAAAAAJARoAAAAAAAS1/YAAAAA4K9zTnTyzNzu5O5pcHfdW9fxPvO03IAGAAAAACAhQAMAAAAAkBCgAQAAAABICNAAAAAAACQEaAAAAAAAEgI0AAAAAAAJARoAAAAAgIQADQAAAABAQoAGAAAAACAhQAMAAAAAkBCgAQAAAABICNAAAAAAACQEaAAAAAAAEgI0AAAAAACJa3sAAADwhczM9gQAAL4PN6ABAAAAAEgI0AAAAAAAJARoAAAAAAASAjQAAAAAAAkBGgAAAACAhAANAAAAAEBCgAYAAAAAICFAAwAAAACQEKABAAAAAEgI0AAAAAAAJARoAAAAAAASAjQAAAAAAAkBGgAAAACAhAANAAAAAEDi2h4AAAAA5M450ckzc7uTu6fBa90n2PFuwIdzAxoAAAAAgIQADQAAAABAQoAGAAAAACAhQAMAAAAAkBCgAQAAAABICNAAAAAAACQEaAAAAAAAEgI0AAAAAAAJARoAAAAAgIQADQAAAABAQoAGAAAAACAhQAMAAAAAkBCgAQAAAABICNAAAAAAACQEaAAAAAAAEgI0AAAAAAAJARoAAAAAgIQADQAAAABAQoAGAAAAACAhQAMAAAAAkBCgAQAAAABICNAAAAAAACQEaAAAAAAAEgI0AAAAAAAJARoAAAAAgIQADQAAAABAQoAGAAAAACAhQAMAAAAAkBCgAQAAAABIXNsDgPuZme0JDzvnbE+Ap+bvBgB8Y92XZvcTojv5jj8h/FQDUm5AAwAAAACQEKABAAAAAEgI0AAAAAAAJARoAAAAAAASAjQAAAAAAAkBGgAAAACAhAANAAAAAEBCgAYAAAAAICFAAwAAAACQEKABAAAAAEgI0AAAAAAAJARoAAAAAAASAjQAAAAAAAkBGgAAAACAxLU9AAAA+ELOOdsTnsLMbE8AAPgMbkADAAAAAJAQoAEAAAAASAjQAAAAAAAkBGgAAAAAABICNAAAAAAACQEaAAAAAICEAA0AAAAAQEKABgAAAAAgIUADAAAAAJAQoAEAAAAASAjQAAAAAAAkBGgAAAAAABICNAAAAAAACQEaAAAAAIDEtT0AAAAA4A3nnOjkmbndyXfUfYLAjbgBDQAAAABAQoAGAAAAACAhQAMAAAAAkBCgAQAAAABICNAAAAAAACQEaAAAAAAAEgI0AAAAAAAJARoAAAAAgIQADQAAAABAQoAGAAAAACAhQAMAAAAAkBCgAQAAAABICNAAAAAAACQEaAAAAAAAEgI0AAAAAAAJARoAAAAAgIQADQAAAABAQoAGAAAAACAhQAMAAAAAkBCgAQAAAABICNAAAAAAACQEaAAAAAAAEgI0AAAAAAAJARoAAAAAgIQADQAAAABAQoAGAAAAACAhQAMAAAAAkBCgAQAAAABICNAAAAAAACSu7QEAAAAAn+qcE508M9HJne5pALy4AQ0AAAAAQESABgAAAAAgIUADAAAAAJAQoAEAAAAASAjQAAAAAAAkBGgAAAAAABICNAAAAAAACQEaAAAAAICEAA0AAAAAQEKABgAAAAAgIUADAAAAAJAQoAEAAAAASAjQAAAAAAAkBGgAAAAAABICNAAAAAAACQEaAAAAAICEAA0AAAAAQEKABgAAAAAgIUADAAAAAJAQoAEAAAAASAjQAAAAAAAkBGgAAAAAABICNAAAAAAACQEaAAAAAICEAA0AAAAAQEKABgAAAAAgIUADAAAAAJAQoAEAAAAASAjQAAAAAAAkru0BAAAAAN/EOWd7AsDX4gY0AAAAAAAJARoAAAAAgIQADQAAAABAQoAGAAAAACAhQAMAAAAAkBCgAQAAAABICNAAAAAAACQEaAAAAAAAEgI0AAAAAAAJARoAAAAAgIQADQAAAABAQoAGAAAAACAhQAMAAAAAkBCgAQAAAABICNAAAAAAACQEaAAAAAAAEgI0AAAAAAAJARoAAAAAgIQADQAAAABAQoAGAAAAACAhQAMAAAAAkBCgAQAAAABICNAAAAAAACQEaAAAAAAAEgI0AAAAAAAJARoAAAAAgIQADQAAAABAQoAGAAAAACAhQAMAAAAAkLi2BzyLX79+bU942O/fv7cnPOzPnz/bEwAAAACAv9yABgAAAAAgIUADAAAAAJAQoAEAAAAASAjQAAAAAAAkBGgAAAAAABICNAAAAAAACQEaAAAAAICEAA0AAAAAQEKABgAAAAAgIUADAAAAAJAQoAEAAAAASAjQAAAAAAAkBGgAAAAAABICNAAAAAAACQEaAAAAAICEAA0AAAAAQEKABgAAAAAgIUADAAAAAJAQoAEAAAAASAjQAAAAAAAkBGgAAAAAABICNAAAAAAACQEaAAAAAICEAA0AAAAAQEKABgAAAAAgIUADAAAAAJAQoAEAAAAASAjQAAAAAAAkBGgAAAAAABLX9gAAAAB2zMz2hIedc7YnAPCp7vhtxWtuQAMAAAAAkBCgAQAAAABICNAAAAAAACQEaAAAAAAAEgI0AAAAAAAJARoAAAAAgIQADQAAAABAQoAGAAAAACAhQAMAAAAAkBCgAQAAAABICNAAAAAAACQEaAAAAP5t1w5SFIfCMIpiP6e1EPe/FandPOhxDxpMUdff6DnjDL5ESeDyAAASAjQAAAAAAAkBGgAAAACAhAANAAAAAEBCgAYAAAAAICFAAwAAAACQEKABAAAAAEgI0AAAAAAAJARoAAAAAAASAjQAAAAAAAkBGgAAAACAhAANAAAAAEBCgAYAAAAAICFAAwAAAACQEKABAAAAAEgI0AAAAAAAJARoAAAAAAASAjQAAAAAAInL9IBPsfeennDYWmt6wmG32216wmH3+316wmFn/G/wHN51z+E5P4fnDKTO+JJ5Ed51AJ/GR/PHXuSj6QQ0AAAAAAAJARoAAAAAgIQADQAAAABAQoAGAAAAACAhQAMAAAAAkBCgAQAAAABICNAAAAAAACQEaAAAAAAAEgI0AAAAAAAJARoAAAAAgIQADQAAAABAQoAGAAAAACAhQAMAAAAAkBCgAQAAAABIXKcHAAAAfJy11vSEw/be0xMAYMwZv90vwgloAAAAAAASAjQAAAAAAAkBGgAAAACAhAANAAAAAEBCgAYAAAAAICFAAwAAAACQEKABAAAAAEgI0AAAAAAAJARoAAAAAAASAjQAAAAAAAkBGgAAAACAhAANAAAAAEBCgAYAAAAAICFAAwAAAACQuE4PAAAAgEftvacnAAAHOAENAAAAAEBCgAYAAAAAICFAAwAAAACQEKABAAAAAEgI0AAAAAAAJARoAAAAAAASAjQAAAAAAAkBGgAAAACAhAANAAAAAEBCgAYAAAAAICFAAwAAAACQEKABAAAAAEgI0AAAAAAAJARoAAAAAAASAjQAAAAAAAkBGgAAAACAhAANAAAAAEBCgAYAAAAAICFAAwAAAACQEKABAAAAAEgI0AAAAAAAJARoAAAAAAASAjQAAAAAAAkBGgAAAACAhAANAAAAAEBCgAYAAAAAICFAAwAAAACQEKABAAAAAEgI0AAAAAAAJK7TAz7F9/f39ITD9t7TEw4743MGAAAAgHflBDQAAAAAAAkBGgAAAACAhAANAAAAAEBCgAYAAAAAICFAAwAAAACQEKABAAAAAEgI0AAAAAAAJARoAAAAAAASAjQAAAAAAAkBGgAAAACAhAANAAAAAEBCgAYAAAAAICFAAwAAAACQEKABAAAAAEhcpwcAAABwAmut6QkAwPk4AQ0AAAAAQEKABgAAAAAgIUADAAAAAJAQoAEAAAAASAjQAAAAAAAkBGgAAAAAABICNAAAAAAACQEaAAAAAICEAA0AAAAAQEKABgAAAAAgIUADAAAAAJAQoAEAAAAASAjQAAAAAAAkBGgAAAAAABICNAAAAAAACQEaAAAAAICEAA0AAAAAQEKABgAAAAAgIUADAAAAAJAQoAEAAAAASAjQAAAAAAAkBGgAAAAAABICNAAAAAAACQEaAAAAAICEAA0AAAAAQEKABgAAAAAgIUADAAAAAJAQoAEAAAAASAjQAAAAAAAkBGgAAAAAABICNAAAAAAACQEaAAAAAICEAA0AAAAAQEKABgAAAAAgIUADAAAAAJAQoAEAAAAASAjQAAAAAAAkBGgAAAAAABICNAAAAAAACQEaAAAAAICEAA0AAAAAQEKABgAAAAAgIUADAAAAAJAQoAEAAAAASFymB8Bvut1u0xMOu9/v0xMAeBNrrekJAAAA/3ACGgAAAACAhAANAAAAAEBCgAYAAAAAICFAAwAAAACQEKABAAAAAEgI0AAAAAAAJARoAAAAAAASAjQAAAAAAAkBGgAAAACAhAANAAAAAEBCgAYAAAAAICFAAwAAAACQEKABAAAAAEgI0AAAAAAAJARoAAAAAAASAjQAAAAAAAkBGgAAAACAhAANAAAAAEBCgAYAAAAAICFAAwAAAACQEKABAAAAAEgI0AAAAAAAJARoAAAAAAASAjQAAAAAAAkBGgAAAACAhAANAAAAAEBCgAYAAAAAICFAAwAAAACQEKABAAAAAEgI0AAAAAAAJARoAAAAAAASAjQAAAAAAAkBGgAAAACAhAANAAAAAEBCgAYAAAAAICFAAwAAAACQEKABAAAAAEgI0AAAAAAAJARoAAAAAAASAjQAAAAAAAkBGgAAAACAhAANAAAAAEBCgAYAAAAAICFAAwAAAACQEKABAAAAAEgI0AAAAAAAJARoAAAAAAASAjQAAAAAAAkBGgAAAACAhAANAAAAAEBCgAYAAAAAICFAAwAAAACQEKABAAAAAEgI0AAAAAAAJARoAAAAAAASAjQAAAAAAAkBGgAAAACAhAANAAAAAEBCgAYAAAAAAAAAAAAAAAAAAAAAAAAAAAAAAAAAAAAAAAAAAAAAAAAAAAAAAAAAAAAAAAAAAAAAAAAAAAAAAAAAAAAAAAAAAAAAAAAAAAAAAAAAAAAAAAAAAAAAAAAAAAAAAAAAAAAAAAAAAAAAAAAAAAAAAAAAAAAAAAAAAAAAAAAAAAAAAAAAAAAAAAAAAAAAAAAAAAAAAAAAAAAAAAAAAAAAAAAAAAAAAAAAAAAAAAAAAAAAAAAAAAAAAAAAAAAAAAAAAAAAAAAAAAAAAAAAAAAAAAAAAAAAAAAAAAAAAAAAAAAAAAAAAAAAAAAAAAAAAAAAAAAAAAAAAAAAAAAAAAAAAAAAAAAAAAAAAAAAAAAAAAAAAAAAAAAAAAAAAAAAAAAAAAAAAAAAAAAAAAAAAAAAAAAAAAAAAAAAAAAAAAAAAAAAAAAAAAAAAAAAAAAAAAAAAADgvy7TAwAAADiBvffjF6+1zPiZM27udE8DgKf5Mz0AAAAAAID3JEADAAAAAJAQoAEAAAAASAjQAAAAAAAkBGgAAAAAABICNAAAAAAACQEaAAAAAICEAA0AAAAAQEKABgAAAAAgIUADAAAAAJAQoAEAAAAASAjQAAAAAAAkBGgAAAAAABICNAAAAAAAiev0AAAAADiZtdbjF++9uyWRt79BAJ7GCWgAAAAAABICNAAAAAAACQEaAAAAAICEAA0AAAAAQEKABgAAAAAgIUADAAAAAJAQoAEAAADSjLLIAAADLklEQVQASAjQAAAAAAAkBGgAAAAAABICNAAAAAAACQEaAAAAAICEAA0AAAAAQEKABgAAAAAgIUADAAAAAJC4Tg8AAADg3ey9pyfwPGutxy/23wD4NE5AAwAAAACQEKABAAAAAEgI0AAAAAAAJARoAAAAAAASAjQAAAAAAAkBGgAAAACAhAANAAAAAEBCgAYAAAAAICFAAwAAAACQEKABAAAAAEgI0AAAAAAAJARoAAAAAAASAjQAAAAAAAkBGgAAAACAxGV6AAAAADxq7/34xWutV5jROXSDL7L5kO4XBOBpnIAGAAAAACAhQAMAAAAAkBCgAQAAAABICNAAAAAAACQEaAAAAAAAEgI0AAAAAAAJARoAAAAAgIQADQAAAABAQoAGAAAAACAhQAMAAAAAkBCgAQAAAABICNAAAAAAACQEaAAAAAAAEgI0AAAAAACJy9fX1/QGAAAAAADekBPQAAAAAAAkBGgAAAAAABICNAAAAAAACQEaAAAAAICEAA0AAAAAQEKABgAAAAAgIUADAAAAAJAQoAEAAAAASAjQAAAAAAAkBGgAAAAAABICNAAAAAAACQEaAAAAAICEAA0AAAAAQEKABgAAAAAgIUADAAAAAJAQoAEAAAAASAjQAAAAAAAkBGgAAAAAABICNAAAAAAACQEaAAAAAICEAA0AAAAAQEKABgAAAAAgIUADAAAAAJAQoAEAAAAASAjQAAAAAAAkBGgAAAAAABICNAAAAAAACQEaAAAAAICEAA0AAAAAQEKABgAAAAAgIUADAAAAAJAQoAEAAAAASAjQAAAAAAAkBGgAAAAAABICNAAAAAAACQEaAAAAAICEAA0AAAAAQEKABgAAAAAgIUADAAAAAJAQoAEAAAAASAjQAAAAAAAkBGgAAAAAABICNAAAAAAACQEaAAAAAICEAA0AAAAAQEKABgAAAAAgIUADAAAAAJAQoAEAAAAASAjQAAAAAAAkBGgAAAAAABICNAAAAAAACQEaAAAAAICEAA0AAAAAQEKABgAAAAAgIUADAAAAAJAQoAEAAAAASAjQAAAAAAAkBGgAAAAAABICNAAAAAAAib9Vj9jM72McigAAAABJRU5ErkJggg==;" parent="1" vertex="1">
          <mxGeometry x="20" y="40" width="195.25" height="110" as="geometry" />
        </mxCell>
        <mxCell id="j0XCvzLV908bLDE6tFvo-2" value="" style="shape=image;aspect=fixed;image=data:image/png,iVBORw0KGgoAAAANSUhEUgAAB4AAAAQ4CAIAAABnsVYUAAAAA3NCSVQICAjb4U/gAAAAGXRFWHRTb2Z0d2FyZQBnbm9tZS1zY3JlZW5zaG907wO/PgAAIABJREFUeJzs2sFqG0sURVE7t6f+/68teFMTElC/eKtarbXGQpyW5MJs6vPr6+sDAAAAAAB+2q/dAwAAAAAAuCcBGgAAAACAhAANAAAAAEBCgAYAAAAAICFAAwAAAACQEKABAAAAAEgI0AAAAAAAJARoAAAAAAASAjQAAAAAAAkBGgAAAACAhAANAAAAAEBCgAYAAAAAICFAAwAAAACQEKABAAAAAEgI0AAAAAAAJARoAAAAAAASAjQAAAAAAAkBGgAAAACAhAANAAAAAEBCgAYAAAAAICFAAwAAAACQEKABAAAAAEgI0AAAAAAAJARoAAAAAAASAjQAAAAAAAkBGgAAAACAhAANAAAAAEBCgAYAAAAAICFAAwAAAACQEKABAAAAAEgI0AAAAAAAJARoAAAAAAASAjQAAAAAAAkBGgAAAACAhAANAAAAAEBCgAYAAAAAICFAAwAAAACQEKABAAAAAEgI0AAAAAAAJARoAAAAAAASAjQAAAAAAAkBGgAAAACAhAANAAAAAEBCgAYAAAAAICFAAwAAAACQEKABAAAAAEgI0AAAAAAAJARoAAAAAAASAjQAAAAAAAkBGgAAAACAhAANAAAAAEBCgAYAAAAAICFAAwAAAACQEKABAAAAAEgI0AAAAAAAJARoAAAAAAASAjQAAAAAAAkBGgAAAACAhAANAAAAAAAAAAAAAAAAAAAAAAAAAAAAAAAAAAAAAAAAAAAAAAAAAAAAAAAAAAAAAAAAAAAAAAAAAAAAAAAAAAAAAAAAAAAAAAAAAAAAAAAAAAAAAAAAAAAAAAAAAAAAAAAAAAAAAAAAAAAAAAAAAAAAAAAAAAAAAAAAAAAAAAAAAAAAAAAAAAAAAAAAAAAAAAAAAAAAAAAAAAAAAAAAAAAAAAAAAAAAAAAAAAAAAAAAAAAAAAAAAAAAAAAAAAAAAAAAAAAAAAAAAAAAAAAAAAAAAAAAAAAAAAAAAAAAAAAAAAAAAAAAAAAAAAAAAAAAAAAAAAAAAAAAAAAAAAAAAAAAAAAAAAAAAAAAAAAAAAAAAAAAAAAAAAAAAAAAAAAAAAAAAAAAAAAAAAAAAAAAAAAAAAAAAAAAAAAAAAAAAAAAAAAAAAAAAAAAAAAAAAAAAAAAAAAAAAAAAAAAAAAAAAAAAAAAAAAAAAAAAAAAAAAAAAAAAAAAAAAAAAAAAAAAAAAAAAAAAAAAAAAAAAAAAAAAAAAAAAAAAAAAAAAAAAAAAAAAAAAAAAAAAAAAAAAAAAAAAAAAAAAAAAAAAAAAAAAAAAAAAAAAAAAAAAAAAAAAAAAAAAAAAAAAAAAAAAAAAAAAAAAAAAAAAAAAAAAAAAAAAAAAAAAAAAAAAAAAAAAAAAAAAAAAAAAAAAAAAAAAAAAAAAAAAAAAAAAAAAAAAAAAAAAAAAAAAAAAAAAAAAAAAAAAAAAAAAAAAAAAAAAAAAAAAAAAAAAAAAAAAAAAAAAAAAAAAAAAAAAAAAAAAAAAAAAAAAAAAAAAAAAAAAAAAAAAAAAAAAAAAAAAAAAAAAAAAAAAAAAAAAAAAAAAAAAAAAAAAAAAAAAAAAAAAAAAAAAAAABwc5+7BwA8w1pr94S3MDO7J3BR/gafw98gAABwNb92DwAAAAAA4J4EaAAAAAAAEgI0AAAAAAAJARoAAAAAgIQADQAAAABAQoAGAAAAACAhQAMAAAAAkBCgAQAAAABICNAAAAAAACQEaAAAAAAAEgI0AAAAAAAJARoAAAAAgIQADQAAAABAQoAGAAAAACAhQAMAAAAAkBCgAQAAAABICNAAAAAAACQEaAAAAAAAEgI0AAAAAAAJARoAAAAAgIQADQAAAABAQoAGAAAAACAhQAMAAAAAkBCgAQAAAABICNAAAAAAACQEaAAAAAAAEgI0AAAAAAAJARoAAAAAgIQADQAAAABAQoAGAAAAACAhQAMAAAAAkBCgAQAAAABICNAAAAAAACQEaAAAAAAAEgI0AAAAAAAJARoAAAAAgIQADQAAAABAQoAGAAAAACAhQAMAAAAAkBCgAQAAAABICNAAAAAAACQEaAAAAAAAEgI0AAAAAAAJARoAAAAAgIQADQAAAABAQoAGAAAAACAhQAMAAAAAkBCgAQAAAABICNAAAAAAACQEaAAAAAAAEgI0AAAAAAAJARoAAAAAgIQADQAAAABAQoAGAAAAACAhQAMAAAAAkBCgAQAAAABICNAAAAAAACQEaAAAAAAAEgI0AAAAAACJY/cAAP5sZnZPOG2ttXsCF+X3DAAA8J7cgAYAAAAAICFAAwAAAACQEKABAAAAAEgI0AAAAAAAJARoAAAAAAASAjQAAAAAAAkBGgAAAACAhAANAAAAAEBCgAYAAAAAICFAAwAAAACQEKABAAAAAEgI0AAAAAAAJARoAAAAAAASAjQAAAAAAAkBGgAAAACAhAANAAAAAEBCgAYAAAAAICFAAwAAAACQEKABAAAAAEgI0AAAAAAAJARoAAAAAAASAjQAAAAAAAkBGgAAAACAhAANAAAAAEBCgAYAAAAAICFAAwAAAACQEKABAAAAAEgI0AAAAAAAJARoAAAAAAASx+4BAAAAwLtYa0XvPDPRO59y+wcEOMsNaAAAAAAAEgI0AAAAAAAJARoAAAAAgIQADQAAAABAQoAGAAAAACAhQAMAAAAAkBCgAQAAAABICNAAAAAAACQEaAAAAAAAEgI0AAAAAAAJARoAAAAAgIQADQAAAABAQoAGAAAAACAhQAMAAAAAkDh2DwAAAABe2Fpr94SPj5MzZiZ65073gAApN6ABAAAAAEgI0AAAAAAAJARoAAAAAAASAjQAAAAAAAkBGgAAAACAhAANAAAAAEBCgAYAAAAAICFAAwAAAACQEKABAAAAAEgI0AAAAAAAJARoAAAAAAASAjQAAAAAAAkBGgAAAACAhAANAAAAAEDi2D0AgPuYmd0TAAD4AWut3RNaHvA7/8YDKTegAQAAAABICNAAAAAAACQEaAAAAAAAEgI0AAAAAAAJARoAAAAAgIQADQAAAABAQoAGAAAAACAhQAMAAAAAkBCgAQAAAABICNAAAAAAACQEaAAAAAAAEgI0AAAAAAAJARoAAAAAgIQADQAAAABAQoAGAAAAACAhQAMAAAAAkBCgAQAAAABICNAAAAAAACQEaAAAAAAAEgI0AAAAAAAJARoAAAAAgIQADQAAAABAQoAGAAAAACAhQAMAAAAAkBCgAQAAAABICNAAAAAAACQEaAAAAAAAEgI0AAAAAAAJARoAAAAAgIQADQAAAABAQoAGAAAAACAhQAMAAAAAkBCgAQAAAABICNAAAAAAACQEaAAAAAAAEgI0AAAAAAAJARoAAAAAgIQADQAAAABAQoAGAAAAACAhQAMAAAAAkBCgAQAAAABICNAAAAAAACQEaAAAAAAAEgI0AAAAAACJY/cAAAAA7matFb3zzETvfMrtH/DUjO7T4H+7yA/plNv/Wd3+AeFv3IAGAAAAACAhQAMAAAAAkBCgAQAAAABICNAAAAAAACQEaAAAAAAAEgI0AAAAAAAJARoAAAAAgIQADQAAAABAQoAGAAAAACAhQAMAAAAAkBCgAQAAAABICNAAAAAAACQEaAAAAAAAEgI0AAAAAACJz90DAJ5hrbV7wmkzs3vCaT5n/uYVfxuvyO8ZSL3iYX7qYLz9A17EK37OF+Hrfg7nBvw4N6ABAAAAAEgI0AAAAAAAJARoAAAAAAASAjQAAAAAAAkBGgAAAACAhAANAAAAAEBCgAYAAAAAICFAAwAAAACQEKABAAAAAEgI0AAAAAAAJARoAAAAAAASAjQAAAAAAAkBGgAAAACAhAANAAAAAEDi2D0AAACAPdZauye0POB3M9MtedypGbf/Bi/ypZxy+y/FA373ij9RLsgNaAAAAAAAEgI0AAAAAAAJARoAAAAAgIQADQAAAABAQoAGAAAAACAhQAMAAAAAkBCgAQAAAABICNAAAAAAACQEaAAAAAAAEgI0AAAAAAAJARoAAAAAgIQADQAAAABAQoAGAAAAACAhQAMAAAAAkDh2DwAAAAD4g5l5/MVrrW7J405tBngHbkADAAAAAJAQoAEAAAAASAjQAAAAAAAkBGgAAAAAABICNAAAAAAACQEaAAAAAICEAA0AAAAAQEKABgAAAAAgIUADAAAAAJAQoAEAAAAASAjQAAAAAAAkBGgAAAAAABICNAAAAAAACQEaAAAAAIDEsXsAAAAAwL+amcdfvNaK3hmA37gBDQAAAABAQoAGAAAAACAhQAMAAAAAkBCgAQAAAABICNAAAAAAACQEaAAAAAAAEgI0AAAAAAAJARoAAAAAgIQADQAAAABAQoAGAAAAACAhQAMAAAAAkBCgAQAAAABICNAAAAAAACQEaAAAAAAAEp+7BwA8w1pr94TTZmb3BHhrzg2A37ziwXh7Tn4uzrlxQc4Nns8NaAAAAAAAEgI0AAAAAAAJARoAAAAAgIQADQAAAABAQoAGAAAAACAhQAMAAAAAkBCgAQAAAABICNAAAAAAACQEaAAAAAAAEgI0AAAAAAAJARoAAAAAgIQADQAAAABAQoAGAAAAACAhQAMAAAAAkDh2DwAAAOAFzMzjL15rdUvu7dTnDBfn3HgO5wYX5wY0AAAAAAAJARoAAAAAgIQADQAAAABAQoAGAAAAACAhQAMAAAAAkBCgAQAAAABICNAAAAAAACQEaAAAAAAAEgI0AAAAAAAJARoAAAAAgIQADQAAAABAQoAGAAAAACAhQAMAAAAAkBCgAQAAAABIHLsHAAAAcDcz8/iL11rdkis49WnA23JufOfc4E7cgAYAAAAAICFAAwAAAACQEKABAAAAAEgI0AAAAAAAJARoAAAAAAASAjQAAAAAAAkBGgAAAACAhAANAAAAAEBCgAYAAAAAICFAAwAAAACQEKABAAAAAEgI0AAAAAAAJARoAAAAAAASAjQAAAAAAIlj9wAAAADe2sw8/uK1Vrfkcac2Az/OuQEvxA1oAAAAAAASAjQAAAAAAAkBGgAAAACAhAANAAAAAEBCgAYAAAAAICFAAwAAAACQEKABAAAAAEgI0AAAAAAAJARoAAAAAAASAjQAAAAAAAkBGgAAAACAhAANAAAAAEBCgAYAAAAAICFAAwAAAACQOHYPAAAAgEfNzOMvXmtF7wy8EOcG7OUGNAAAAAAACQEaAAAAAICEAA0AAAAAQEKABgAAAAAgIUADAAAAAJAQoAEAAAAASAjQAAAAAAAkBGgAAAAAABICNAAAAAAACQEaAAAAAICEAA0AAAAAQEKABgAAAAAgIUADAAAAAJAQoAEAAAAASBy7BwAAAEBiZnZPAF6McwN+nBvQAAAAAAAkBGgAAAAAABICNAAAAAAACQEaAAAAAICEAA0AAAAAQEKABgAAAAAgIUADAAAAAJAQoAEAAAAASAjQAAAAAAAkBGgAAAAAABICNAAAAAAACQEaAAAAAICEAA0AAAAAQEKABgAAAAAgIUADAAAAAJAQoAEAAAAASAjQAAAAAAAkBGgAAAAAABICNAAAAAAACQEaAAAAAICEAA0AAAAAQEKABgAAAAAgIUADAAAAAJAQoAEAAAAASAjQAAAAAAAkBGgAAAAAABICNAAAAAAACQEaAAAAAICEAA0AAAAAQEKABgAAAAAgIUADAAAAAJAQoAEAAAAASAjQAAAAAAAkBGgAAAAAABICNAAAAAAACQEaAAAAAICEAA0AAAAAQEKABgAAAAAgIUADAAAAAJAQoAEAAAAASAjQAAAAAAAkBGgAAAAAABICNAAAAAAACQEaAAAAAIDE5+4BwOtZa+2ecNrM7J4Ab825AQAA8J7cgAYAAAAAICFAAwAAAACQEKABAAAAAEgI0AAAAAAAJARoAAAAAAASAjQAAAAAAAkBGgAAAACAhAANAAAAAEBCgAYAAAAAICFAAwAAAACQEKABAAAAAEgI0AAAAAAAJARoAAAAAAASAjQAAAAAAAkBGgAAAACAhAANAAAAAEBCgAYAAAAAICFAAwAAAACQEKABAAAAAEgI0AAAAAAAJARoAAAAAAASAjQAAAAAAAkBGgAAAACAhAANAAAAAEBCgAYAAAAAICFAAwAAAACQEKABAAAAAEgI0AAAAAAAJARoAAAAAAASAjQAAAAAAAkBGgAAAACAhAANAAAAAEBCgAYAAAAAICFAAwAAAACQEKABAAAAAEgI0AAAAAAAJARoAAAAAAASAjQAAAAAAAkBGgAAAACAhAANAAAAAEBCgAYAAAAAICFAAwAAAACQEKABAAAAAEgI0AAAAAAAJARoAAAAAAASAjQAAAAAAAkBGgAAAACAhAANAAAAAEBCgAYAAAAAICFAAwAAAACQEKABAAAAAEgI0AAAAAAAJARoAAAAAAASAjQAAAAAAAkBGgAAAACAhAANAAAAAEBCgAYAAAAAICFAAwAAAACQEKABAAAAAEgI0AAAAAAAJARoAAAAAAASAjQAAAAAAAkBGgAAAACAhAANAAAAAEBCgAYAAAAAICFAAwAAAACQEKABAAAAAEgI0AAAAAAAJARoAAAAAAASAjQAAAAAAAkBGgAAAACAhAANAAAAAEBCgAYAAAAAICFAAwAAAACQEKABAAAAAEgI0AAAAAAAJARoAAAAAAASAjQAAAAAAAkBGgAAAACAhAANAAAAAEBCgAYAAAAAICFAAwAAAACQEKABAAAAAEgI0AAAAAAAJARoAAAAAAASAjQAAAAAAAkBGgAAAACAhAANAAAAAEBCgAYAAAAAICFAAwAAAACQEKABAAAAAEgI0AAAAAAAJARoAAAAAAASAjQAAAAAAAkBGgAAAACAhAANAAAAAEBCgAYAAAAAICFAAwAAAACQEKABAAAAAEgI0AAAAAAAJARoAAAAAAASAjQAAAAAAAkBGgAAAACAhAANAAAAAEBCgAYAAAAAICFAAwAAAACQEKABAAAAAEgI0AAAAAAAJARoAAAAAAASAjQAAAAAAAkBGgAAAACAhAANAAAAAEBCgAYAAAAAICFAAwAAAACQEKABAAAAAEgI0AAAAAAAJARoAAAAAAASAjQAAAAAAAkBGgAAAACAhAANAAAAAEBCgAYAAAAAICFAAwAAAACQEKABAAAAAEgI0AAAAAAAJARoAAAAAAASAjQAAAAAAAkBGgAAAACAhAANAAAAAEBCgAYAAAAAICFAAwAAAACQEKABAAAAAEgI0AAAAAAAJARoAAAAAAASAjQAAAAAAAkBGgAAAACAhAANAAAAAEBCgAYAAAAAICFAAwAAAACQEKABAAAAAEgI0AAAAAAAJARoAAAAAAASAjQAAAAAAAkBGgAAAACAhAANAAAAAEBCgAYAAAAAICFAAwAAAACQEKABAAAAAEgI0AAAAAAAJARoAAAAAAASAjQAAAAAAAkBGgAAAACAhAANAAAAAEBCgAYAAAAAICFAAwAAAACQEKABAAAAAEgI0AAAAAAAJARoAAAAAAASAjQAAAAAAAkBGgAAAACAhAANAAAAAEBCgAYAAAAAICFAAwAAAACQEKABAAAAAEgI0AAAAAAAJARoAAAAAAASAjQAAAAAAAkBGoD/2rWXlABiKIqCtHHa+19twLEzRY6vP1UruISQwSEAAAAACQEaAAAAAICEAA0AAAAAQEKABgAAAAAgIUADAAAAAJAQoAEAAAAASAjQAAAAAAAkBGgAAAAAABICNAAAAAAACQEaAAAAAICEAA0AAAAAQEKABgAAAAAgIUADAAAAAJA4pgdwXXvv6Qlc1FpregIXdcd344732Tn/D+cMAADwd35AAwAAAACQEKABAAAAAEgI0AAAAAAAJARoAAAAAAASAjQAAAAAAAkBGgAAAACAhAANAAAAAEBCgAYAAAAAICFAAwAAAACQEKABAAAAAEgI0AAAAAAAJARoAAAAAAASAjQAAAAAAAkBGgAAAACAhAANAAAAAEBCgAYAAAAAICFAAwAAAACQEKABAAAAAEgI0AAAAAAAJARoAAAAAAASAjQAAAAAAAkBGgAAAACAhAANAAAAAEBCgAYAAAAAICFAAwAAAACQEKABAAAAAEgI0AAAAAAAJARoAAAAAAASAjQAAAAAAAkBGgAAAACAhAANAAAAAEBCgAYAAAAAICFAAwAAAACQEKABAAAAAEgI0AAAAAAAJARoAAAAAAASAjQAAAAAAAkBGgAAAACAhAANAAAAAEBCgAYAAAAAICFAAwAAAACQEKABAAAAAEgI0AAAAAAAJARoAAAAAAASAjQAAAAAAAkBGgAAAACAhAANAAAAAEBCgAYAAAAAICFAAwAAAACQEKABAAAAAEgI0AAAAAAAJARoAAAAAAASAjQAAAAAAAkBGgAAAACAhAANAAAAAEBCgAYAAAAAICFAAwAAAACQEKABAAAAAEgI0AAAAAAAJD6nB7zF3nt6wq+ttaYnvMId7wYAAAAA/IQf0AAAAAAAJARoAAAAAAASAjQAAAAAAAkBGgAAAACAhAANAAAAAEBCgAYAAAAAICFAAwAAAACQEKABAAAAAEgI0AAAAAAAJARoAAAAAAASAjQAAAAAAAkBGgAAAACAhAANAAAAAEBCgAYAAAAAICFAAwAAAACQEKABAAAAAEgI0AAAAAAAJARoAAAAAAASAjQAAAAAAAkBGgAAAACAhAANAAAAAEBCgAYAAAAAICFAAwAAAACQEKABAAAAAEgI0AAAAAAAJARoAAAAAAASAjQAAAAAAAkBGgAAAACAhAANAAAAAEBCgAYAAAAAICFAAwAAAACQEKABAAAAAEgI0AAAAAAAJARoAAAAAAASAjQAAAAAAAkBGgAAAACAhAANAAAAAEBCgAYAAAAAICFAAwAAAACQEKABAAAAAEgI0AAAAAAAJARoAAAAAAASAjQAAAAAAAkBGgAAAACAhAANAAAAAEBCgAYAAAAAICFAAwAAAACQEKABAAAAAEgI0AAAAAAAJARoAAAAAAASAjQAAAAAAAkBGgAAAACAhAANAAAAAEBCgAYAAAAAICFAAwAAAACQEKABAAAAAEgI0AAAAAAAJARoAAAAAAASAjQAAAAAAIljesBb7L2nJwAAD7fWmp4AAADwjR/QAAAAAAAkBGgAAAAAABICNAAAAAAACQEaAAAAAICEAA0AAAAAQEKABgAAAAAgIUADAAAAAJAQoAEAAAAASAjQAAAAAAAkBGgAAAAAABICNAAAAAAACQEaAAAAAICEAA0AAAAAQEKABgAAAAAgIUADAAAAAJAQoAEAAAAASAjQAAAAAAAkBGgAAAAAABICNAAAAAAACQEaAAAAAICEAA0AAAAAQEKABgAAAAAgIUADAAAAAJAQoAEAAAAASAjQAAAAAAAkBGgAAAAAABICNAAAAAAACQEaAAAAAICEAA0AAAAAQEKABgAAAAAgIUADAAAAAJAQoAEAAAAASAjQAAAAAAAkBGgAAAAAABICNAAAAAAACQEaAAAAAICEAA0AAAAAQEKABgAAAAAgIUADAAAAAJAQoAEAAAAASAjQAAAAAAAkBGgAAAAAABICNAAAAAAACQEaAAAAAICEAA0AAAAAQEKABgAAAAAgIUADAAAAAJAQoAEAAAAASAjQAAAAAAAkBGgAAAAAABICNAAAAAAACQEaAAAAAICEAA0AAAAAQEKABgAAAAAgIUADAAAAAJAQoAEAAAAASAjQAAAAAAAkBGgAAAAAABICNAAAAAAAAAAAAAAAAAAAAAAAAAAAAAAAAAAAAAAAAAAAAAAAAAAAAAAAAAAAAAAAAAAAAAAAAAAAAAAAAAAAAAAAAAAAAAAAAAAAAAAAAAAAAAAAAAAAAAAAAAAAAAAAAAAAAAAAAAAAAAAAAAAAAAAAAAAAAAAAAAAAAAAAAAAAAAAAAAAAAAAAAAAAAAAAAAAAAAAAAAAAAAAAAAAAAAAAAAAAAAAAAAAAAAAAAAAAAAAAAAAAAAAAAAAAAAAAAAAAAAAAAAAAAAAAAAAAAAAAAAAAAAAAAAAAAAAAAAAAAAAAAAAAAAAAAAAAAAAAAAAAAAAAAAAAAAAAAAAAAAAAAAAAAAAAAAAAAAAAAAAAAAAAAAAAAAAAAAAAAAAAAAAAAAAAAAAAAAAAAAAAAAAAAAAAAAAAAAAAAAAAAAAAAAAAAAAAAAAAAAAAAAAAAAAAAAAAAAAAAAAAAAAAAAAAAAAAAAAAAAAAAAAAAAAAAAAAAAAAAAAAAAAAAAAAAAAAAAAAAAAAAAAAAAAAAAAAAAAAAAAAAAAAAAAAAAAAAAAAAAAAAAAAAAAAAAAAAAAAAAAAAAAAAAAAAAAAAAAAAAAAAAAAAAAAAAAAAAAAAAAAAAAAAAAAAAAAAAAAAAAAAAAAAAAAAAAAAAAAAAAAAAAAAAAAAAAAAAAAAAAAAAAAAAAAAAAAAAAAAAAAAAAAAAAAAAAAAAAAAAAAAAAAAAAAAAAAAAAAAAAAAAAAAAAAAAAAAAAAAAAAAAAAAAAAAAAAAAAAAAAAAAAAAAAAAAAAAAAAAAAAAAAAAAAAAAAAAAAAAAAAAAAAAAAAAAAAAAAAAAAAAAAAAAAAAAAAAAAAAAAAAAAAAAAAAAAAAAAAAAAAAAAAAAAAAAAAAAAAwMMd53lObwAAAAAA4IE+pgcAAAAAAPBMAjQAAAAAAAkBGgAAAACAhAANAAAAAEBCgAYAAAAAICFAAwAAAACQEKABAAAAAEgI0AAAAAAAJARoAAAAAAASAjQAAAAAAAkBGgAAAACAhAANAAAAAEBCgAYAAAAAICFAAwAAAACQEKABAAAAAEgI0AAAAAAAJARoAAAAAAASAjQAAAAAAAkBGgAAAACAhAANAAAAAEBCgAYAAAAAICFAAwAAAACQEKABAAAAAEgI0AAAAAAAJARoAAAAAAASAjQAAAAAAAkBGgAAAADD4IytAAABA0lEQVSAhAANAAAAAEBCgAYAAAAAICFAAwAAAACQEKABAAAAAEgI0AAAAAAAJARoAAAAAAASAjQAAAAAAAkBGgAAAACAhAANAAAAAEBCgAYAAAAAICFAAwAAAACQEKABAAAAAEgI0AAAAAAAJARoAAAAAAASAjQAAAAAAAkBGgAAAACAhAANAAAAAEBCgAYAAAAAICFAAwAAAACQEKABAAAAAEgI0AAAAAAAJARoAAAAAAASAjQAAAAAAAkBGgAAAACAhAANAAAAAEBCgAYAAAAAICFAAwAAAACQEKABAAAAAEgI0AAAAAAAJARoAAAAAAASAjQAAAAAAAkBGgAAAACAxBfIN68pmicbzgAAAABJRU5ErkJggg==;" parent="1" vertex="1">
          <mxGeometry x="310" y="40" width="195.25" height="110" as="geometry" />
        </mxCell>
        <mxCell id="j0XCvzLV908bLDE6tFvo-3" value="&lt;b&gt;Press&lt;/b&gt;" style="triangle;whiteSpace=wrap;html=1;fillColor=#0050ef;fontColor=#ffffff;strokeColor=#001DBC;" parent="1" vertex="1">
          <mxGeometry x="230" y="55" width="60" height="80" as="geometry" />
        </mxCell>
      </root>
    </mxGraphModel>
  </diagram>
</mxfile>
